Coordinates
version=1
nRows=8
nColumns=63
inDegrees=yes

Units are S.I. units (second, meters, Newtons, ...)
If the header above contains a line with 'inDegrees', this indicates whether rotational values are in degrees (yes) or radians (no).

endheader
time	pelvis_tilt	pelvis_list	pelvis_rotation	pelvis_tx	pelvis_ty	pelvis_tz	hip_flexion_r	hip_adduction_r	hip_rotation_r	knee_angle_r	knee_angle_r_beta	ankle_angle_r	subtalar_angle_r	mtp_angle_r	hip_flexion_l	hip_adduction_l	hip_rotation_l	knee_angle_l	knee_angle_l_beta	ankle_angle_l	subtalar_angle_l	mtp_angle_l	L5_S1_Flex_Ext	L5_S1_Lat_Bending	L5_S1_axial_rotation	L4_L5_Flex_Ext	L4_L5_Lat_Bending	L4_L5_axial_rotation	L3_L4_Flex_Ext	L3_L4_Lat_Bending	L3_L4_axial_rotation	L2_L3_Flex_Ext	L2_L3_Lat_Bending	L2_L3_axial_rotation	L1_L2_Flex_Ext	L1_L2_Lat_Bending	L1_L2_axial_rotation	L1_T12_Flex_Ext	L1_T12_Lat_Bending	L1_T12_axial_rotation	Abs_r3	Abs_r2	Abs_r1	Abs_t1	Abs_t2	neck_flexion	neck_bending	neck_rotation	arm_flex_r	arm_add_r	arm_rot_r	elbow_flex_r	pro_sup_r	wrist_flex_r	wrist_dev_r	arm_flex_l	arm_add_l	arm_rot_l	elbow_flex_l	pro_sup_l	wrist_flex_l	wrist_dev_l
0.000000	-5.252577	-3.302400	92.788236	0.178794	0.739790	0.661243	3.350034	-7.190707	-19.406930	9.734131	0.169893	20.989928	14.366834	0.000000	5.326341	5.342544	14.848867	8.385334	0.146352	9.219551	-17.396009	0.000000	0.323416	-0.578290	-0.921425	0.600616	-0.769126	-0.979014	0.531341	-1.406055	-0.979014	0.369632	-1.406055	-0.806246	0.300324	-1.179249	-0.748657	0.184800	-0.895771	-0.691068	2.310130	-6.541733	-5.124687	0.000000	0.000000	27.714679	5.508399	-3.502341	17.940782	-14.106669	65.085706	62.986300	68.066561	9.275077	10.745113	7.699110	-11.372955	43.274748	70.166794	67.176432	-2.506209	17.944628
0.016949	-5.123968	-3.368527	92.773937	0.178926	0.739597	0.662049	4.187640	-7.145374	-18.816867	10.501703	0.183289	21.845368	14.636592	0.000000	5.555688	5.166308	12.750197	8.664132	0.151218	9.189103	-15.845053	0.000000	0.327283	-0.574799	-0.851290	0.607797	-0.764483	-0.904495	0.537693	-1.397566	-0.904495	0.374052	-1.397566	-0.744878	0.303915	-1.172130	-0.691673	0.187009	-0.890364	-0.638467	2.337749	-6.502241	-4.734618	0.000000	0.000000	27.670729	4.977227	-4.474244	17.152416	-14.568708	64.210853	64.096089	66.128149	7.298355	9.305704	8.031825	-11.598564	43.822777	70.705505	70.330230	-2.005758	16.942573
0.033898	-4.993484	-3.419876	92.777607	0.179016	0.739432	0.662707	4.870890	-7.081759	-18.320455	11.172962	0.195005	22.608691	14.759588	0.000000	5.758692	4.983799	10.939838	8.926695	0.155800	9.261340	-14.406152	0.000000	0.330132	-0.569414	-0.797412	0.613088	-0.757321	-0.847250	0.542374	-1.384474	-0.847250	0.377308	-1.384474	-0.697735	0.306561	-1.161149	-0.647897	0.188638	-0.882023	-0.598059	2.358101	-6.441328	-4.434966	0.000000	0.000000	27.632060	4.555055	-5.273944	16.511390	-14.972518	63.512997	65.012518	64.866014	5.698750	8.020437	8.295127	-11.742598	44.229203	71.113348	72.943599	-1.560379	16.152531
0.050847	-4.862177	-3.457093	92.799306	0.179063	0.739293	0.663220	5.412091	-7.002673	-17.912189	11.755834	0.205178	23.284371	14.749987	0.000000	5.936778	4.797593	9.402092	9.174667	0.160128	9.425034	-13.077560	0.000000	0.332020	-0.562392	-0.758566	0.616594	-0.747982	-0.805977	0.545475	-1.367401	-0.805977	0.379465	-1.367401	-0.663746	0.308313	-1.146831	-0.616335	0.189716	-0.871146	-0.568925	2.371584	-6.361895	-4.218919	0.000000	0.000000	27.598117	4.232625	-5.915073	16.002512	-15.323417	62.976265	65.757823	64.177896	4.439606	6.883415	8.494263	-11.816916	44.510043	71.409375	75.056769	-1.169532	15.554738
0.067797	-4.731097	-3.480824	92.839096	0.179067	0.739174	0.663594	5.823549	-6.910923	-17.586562	12.258246	0.213947	23.876879	14.621958	0.000000	6.091371	4.610267	8.121263	9.409691	0.164230	9.668964	-11.857526	0.000000	0.333001	-0.553990	-0.733529	0.618417	-0.736807	-0.779374	0.547088	-1.346972	-0.779374	0.380587	-1.346972	-0.641838	0.309225	-1.129697	-0.595992	0.190277	-0.858131	-0.550146	2.378595	-6.266848	-4.079666	0.000000	0.000000	27.568345	4.000678	-6.411263	15.610591	-15.626720	62.584787	66.354244	63.961534	3.484268	5.888744	8.634480	-11.833376	44.681316	71.612639	76.709973	-0.832672	15.129430
0.084746	-4.601295	-3.491712	92.897039	0.179031	0.739074	0.663833	6.117569	-6.809320	-17.338069	12.688123	0.221450	24.390687	14.389666	0.000000	6.223897	4.424397	7.081654	9.633411	0.168135	9.981903	-10.744302	0.000000	0.333132	-0.544464	-0.721074	0.618660	-0.724137	-0.766141	0.547303	-1.323810	-0.766141	0.380737	-1.323810	-0.630940	0.309347	-1.110272	-0.585873	0.190352	-0.843375	-0.540805	2.379532	-6.159089	-4.010397	0.000000	0.000000	27.542188	3.849958	-6.776148	15.320433	-15.887744	62.322692	66.824017	64.114667	2.796080	5.030525	8.721022	-11.803835	44.759041	71.742193	77.943440	-0.549258	14.856842
0.101695	-4.473821	-3.490404	92.973197	0.178954	0.738989	0.663941	6.306458	-6.700671	-17.161204	13.053392	0.227825	24.830269	14.067279	0.000000	6.335781	4.242561	6.267567	9.847470	0.171871	10.352627	-9.736139	0.000000	0.332469	-0.534071	-0.719978	0.617428	-0.710315	-0.764976	0.546213	-1.298541	-0.764976	0.379979	-1.298541	-0.629981	0.308731	-1.089078	-0.584982	0.189973	-0.827277	-0.539983	2.374793	-6.041522	-4.004301	0.000000	0.000000	27.519091	3.771205	-7.023359	15.116848	-16.111805	62.174108	67.189380	64.535036	2.338388	4.302863	8.759137	-11.740153	44.759236	71.817090	78.797403	-0.318748	14.717211
0.118644	-4.349726	-3.477543	93.067630	0.178838	0.738914	0.663923	6.402522	-6.587787	-17.050460	13.361980	0.233211	25.200095	13.668963	0.000000	6.428447	4.067334	5.663306	10.053513	0.175467	10.769912	-8.831287	0.000000	0.331067	-0.523068	-0.729016	0.614824	-0.695681	-0.774579	0.543909	-1.271788	-0.774579	0.378376	-1.271788	-0.637889	0.307428	-1.066641	-0.592325	0.189171	-0.810233	-0.546762	2.364775	-5.917052	-4.054566	0.000000	0.000000	27.498498	3.755162	-7.166531	14.984644	-16.304219	62.123164	67.472571	65.120379	2.074535	3.699862	8.754069	-11.654187	44.697919	71.856383	79.312091	-0.140599	14.690771
